HIERARCHY
ROOT Hips
{
	OFFSET 0.000000 35.082581 0.000000
	CHANNELS 6 Xposition Yposition Zposition Xrotation Yrotation Zrotation 
	JOINT Spine
	{
		OFFSET 0.000000 6.876099 0.125700
		CHANNELS 3 Xrotation Yrotation Zrotation
		JOINT Spine1
		{
			OFFSET 0.000000 5.730043 0.104720
			CHANNELS 3 Xrotation Yrotation Zrotation
			JOINT Spine1_split
			{
				OFFSET 0.000000 5.730043 0.104720
				CHANNELS 3 Xrotation Yrotation Zrotation
				JOINT Spine2
				{
					OFFSET 0.000000 5.730043 0.104720
					CHANNELS 3 Xrotation Yrotation Zrotation
					JOINT Neck
					{
						OFFSET 0.000000 10.314075 0.188496
						CHANNELS 3 Xrotation Yrotation Zrotation
						JOINT Head
						{
							OFFSET 0.000000 7.643700 -2.377400
							CHANNELS 3 Xrotation Yrotation Zrotation
							JOINT HeadTop_End
							{
								OFFSET 0.000000 43.788605 -13.619600
								CHANNELS 3 Xrotation Yrotation Zrotation
								End Site
								{
									OFFSET 0.000000 0.000000 0.000000
								}
							}
						}
					}
					JOINT LeftShoulder
					{
						OFFSET 2.196100 4.412489 0.087492
						CHANNELS 3 Xrotation Yrotation Zrotation
						JOINT LeftShoulder_split
						{
							OFFSET 2.196100 4.412489 0.087492
							CHANNELS 3 Xrotation Yrotation Zrotation
							JOINT LeftArm
							{
								OFFSET 8.771219 -2.981674 -0.026999
								CHANNELS 3 Xrotation Yrotation Zrotation
								JOINT LeftForeArm
								{
									OFFSET 8.512804 0.000000 -0.000000
									CHANNELS 3 Xrotation Yrotation Zrotation
									JOINT LeftHand
									{
										OFFSET 18.484802 0.000000 -0.000000
										CHANNELS 3 Xrotation Yrotation Zrotation
										JOINT LeftHandThumb1
										{
											OFFSET 2.499420 -1.158070 2.653252
											CHANNELS 3 Xrotation Yrotation Zrotation
											JOINT LeftHandThumb2
											{
												OFFSET 2.370079 -1.368366 1.368366
												CHANNELS 3 Xrotation Yrotation Zrotation
												JOINT LeftHandThumb3
												{
													OFFSET 2.676727 -1.545410 1.545409
													CHANNELS 3 Xrotation Yrotation Zrotation
													JOINT LeftHandThumb4
													{
														OFFSET 1.692226 -0.977005 0.977007
														CHANNELS 3 Xrotation Yrotation Zrotation
														End Site
														{
															OFFSET 0.000000 0.000000 0.000000
														}
													}
												}
											}
										}
										JOINT LeftHandIndex1
										{
											OFFSET 7.924831 -0.457527 2.345128
											CHANNELS 3 Xrotation Yrotation Zrotation
											JOINT LeftHandIndex2
											{
												OFFSET 3.643303 0.000000 0.000000
												CHANNELS 3 Xrotation Yrotation Zrotation
												JOINT LeftHandIndex3
												{
													OFFSET 3.810799 0.000000 0.000000
													CHANNELS 3 Xrotation Yrotation Zrotation
													JOINT LeftHandIndex4
													{
														OFFSET 2.403702 0.000000 0.000000
														CHANNELS 3 Xrotation Yrotation Zrotation
														End Site
														{
															OFFSET 0.000000 0.000000 0.000000
														}
													}
												}
											}
										}
										JOINT LeftHandMiddle1
										{
											OFFSET 8.563995 0.000000 -0.000000
											CHANNELS 3 Xrotation Yrotation Zrotation
											JOINT LeftHandMiddle2
											{
												OFFSET 3.861618 0.000000 0.000000
												CHANNELS 3 Xrotation Yrotation Zrotation
												JOINT LeftHandMiddle3
												{
													OFFSET 3.701603 0.000000 0.000000
													CHANNELS 3 Xrotation Yrotation Zrotation
													JOINT LeftHandMiddle4
													{
														OFFSET 2.322544 0.000000 0.000000
														CHANNELS 3 Xrotation Yrotation Zrotation
														End Site
														{
															OFFSET 0.000000 0.000000 0.000000
														}
													}
												}
											}
										}
										JOINT LeftHandRing1
										{
											OFFSET 8.426460 -0.424637 -3.286992
											CHANNELS 3 Xrotation Yrotation Zrotation
											JOINT LeftHandRing2
											{
												OFFSET 3.126408 0.000000 0.000000
												CHANNELS 3 Xrotation Yrotation Zrotation
												JOINT LeftHandRing3
												{
													OFFSET 3.085026 0.000000 0.000000
													CHANNELS 3 Xrotation Yrotation Zrotation
													JOINT LeftHandRing4
													{
														OFFSET 1.644005 0.000000 0.000000
														CHANNELS 3 Xrotation Yrotation Zrotation
														End Site
														{
															OFFSET 0.000000 0.000000 0.000000
														}
													}
												}
											}
										}
									}
								}
							}
						}
					}
					JOINT RightShoulder
					{
						OFFSET -2.196100 4.412496 0.070690
						CHANNELS 3 Xrotation Yrotation Zrotation
						JOINT RightShoulder_split
						{
							OFFSET -2.196100 4.412496 0.070690
							CHANNELS 3 Xrotation Yrotation Zrotation
							JOINT RightArm
							{
								OFFSET -8.771282 -2.981682 -0.094208
								CHANNELS 3 Xrotation Yrotation Zrotation
								JOINT RightForeArm
								{
									OFFSET -8.494598 0.000000 0.000000
									CHANNELS 3 Xrotation Yrotation Zrotation
									JOINT RightHand
									{
										OFFSET -18.483803 0.000000 0.000001
										CHANNELS 3 Xrotation Yrotation Zrotation
										JOINT RightHandThumb1
										{
											OFFSET -2.527351 -1.008072 2.575253
											CHANNELS 3 Xrotation Yrotation Zrotation
											JOINT RightHandThumb2
											{
												OFFSET -2.321518 -1.340328 1.340329
												CHANNELS 3 Xrotation Yrotation Zrotation
												JOINT RightHandThumb3
												{
													OFFSET -2.657753 -1.534454 1.534455
													CHANNELS 3 Xrotation Yrotation Zrotation
													JOINT RightHandThumb4
													{
														OFFSET -1.807510 -1.043568 1.043567
														CHANNELS 3 Xrotation Yrotation Zrotation
														End Site
														{
															OFFSET 0.000000 0.000000 0.000000
														}
													}
												}
											}
										}
										JOINT RightHandIndex1
										{
											OFFSET -8.811420 0.015533 2.887987
											CHANNELS 3 Xrotation Yrotation Zrotation
											JOINT RightHandIndex2
											{
												OFFSET -3.537502 0.000000 0.000000
												CHANNELS 3 Xrotation Yrotation Zrotation
												JOINT RightHandIndex3
												{
													OFFSET -3.356201 0.000000 0.000000
													CHANNELS 3 Xrotation Yrotation Zrotation
													JOINT RightHandIndex4
													{
														OFFSET -1.933098 0.000000 0.000000
														CHANNELS 3 Xrotation Yrotation Zrotation
														End Site
														{
															OFFSET 0.000000 0.000000 0.000000
														}
													}
												}
											}
										}
										JOINT RightHandMiddle1
										{
											OFFSET -8.178135 0.000000 0.000000
											CHANNELS 3 Xrotation Yrotation Zrotation
											JOINT RightHandMiddle2
											{
												OFFSET -3.901302 0.000000 0.000000
												CHANNELS 3 Xrotation Yrotation Zrotation
												JOINT RightHandMiddle3
												{
													OFFSET -3.909599 0.000000 0.000000
													CHANNELS 3 Xrotation Yrotation Zrotation
													JOINT RightHandMiddle4
													{
														OFFSET -2.376003 0.000000 0.000000
														CHANNELS 3 Xrotation Yrotation Zrotation
														End Site
														{
															OFFSET 0.000000 0.000000 0.000000
														}
													}
												}
											}
										}
										JOINT RightHandRing1
										{
											OFFSET -7.559013 0.014137 -2.865403
											CHANNELS 3 Xrotation Yrotation Zrotation
											JOINT RightHandRing2
											{
												OFFSET -3.449306 0.000000 0.000000
												CHANNELS 3 Xrotation Yrotation Zrotation
												JOINT RightHandRing3
												{
													OFFSET -3.362106 0.000000 0.000000
													CHANNELS 3 Xrotation Yrotation Zrotation
													JOINT RightHandRing4
													{
														OFFSET -2.076401 0.000000 0.000000
														CHANNELS 3 Xrotation Yrotation Zrotation
														End Site
														{
															OFFSET 0.000000 0.000000 0.000000
														}
													}
												}
											}
										}
									}
								}
							}
						}
					}
				}
			}
		}
	}
	JOINT LeftUpLeg
	{
		OFFSET 10.205400 -3.823500 0.155100
		CHANNELS 3 Xrotation Yrotation Zrotation
		JOINT LeftLeg
		{
			OFFSET 0.708757 -12.982077 0.567790
			CHANNELS 3 Xrotation Yrotation Zrotation
			JOINT LeftFoot
			{
				OFFSET -0.708756 -10.717838 -2.184338
				CHANNELS 3 Xrotation Yrotation Zrotation
				JOINT LeftToeBase
				{
					OFFSET 0.108149 -7.191104 7.560241
					CHANNELS 3 Xrotation Yrotation Zrotation
					JOINT LeftToe_End
					{
						OFFSET 0.070230 0.081724 4.490308
						CHANNELS 3 Xrotation Yrotation Zrotation
						End Site
						{
							OFFSET 0.000000 0.000000 0.000000
						}
					}
				}
			}
		}
	}
	JOINT RightUpLeg
	{
		OFFSET -10.205400 -3.823500 0.005500
		CHANNELS 3 Xrotation Yrotation Zrotation
		JOINT RightLeg
		{
			OFFSET -0.708756 -12.982134 0.610632
			CHANNELS 3 Xrotation Yrotation Zrotation
			JOINT RightFoot
			{
				OFFSET 0.708754 -10.717769 -1.945823
				CHANNELS 3 Xrotation Yrotation Zrotation
				JOINT RightToeBase
				{
					OFFSET -0.108140 -7.191069 7.372968
					CHANNELS 3 Xrotation Yrotation Zrotation
					JOINT RightToe_End
					{
						OFFSET -0.070227 0.081735 4.479403
						CHANNELS 3 Xrotation Yrotation Zrotation
						End Site
						{
							OFFSET 0.000000 0.000000 0.000000
						}
					}
				}
			}
		}
	}
}
MOTION
Frames: 4
Frame Time: 0.016667
0.008789 28.705662 0.724965 3.885935 -66.368702 1.243712 8.010118 -7.885587 7.425161 -0.190742 -11.250294 6.028640 0.000000 0.000000 0.000000 -11.447048 -11.562235 5.338306 3.252604 40.080312 6.930933 20.046156 25.136462 -4.753815 0.000001 0.000002 0.000001 7.036020 -21.717440 28.304172 0.000000 0.000000 0.000000 -17.434019 -22.035029 -5.063770 -0.024467 -18.120275 -4.741182 -3.552987 -6.370906 13.626881 42.313053 -18.874772 16.581756 -1.124738 11.542618 -8.102162 13.619892 23.384775 -3.936915 0.000000 -0.000002 -0.000000 -2.169686 -7.707819 -52.286450 -1.077018 -2.178635 -57.035802 -1.235699 -2.399994 -59.576967 0.000002 0.000000 -0.000000 0.593491 2.455636 -56.484394 -1.132155 -2.997360 -65.080242 -1.109075 -3.236920 -68.590262 -0.000002 -0.000000 -0.000002 1.303209 5.891427 -65.858241 -2.589242 -2.454403 -70.907971 -2.769609 -2.572063 -74.074098 -0.000000 -0.000002 -0.000000 0.930704 -15.187721 4.991293 0.000000 0.000000 0.000000 -54.595229 -4.695040 -21.803098 -1.943047 39.705474 7.057021 -51.183443 -15.861537 -14.387210 55.149519 18.649562 -29.698281 -0.442540 -14.180535 7.313157 21.667006 -29.244517 9.142383 0.000003 -0.000005 -0.000003 5.673392 7.585028 36.844137 1.050448 3.824484 68.900271 0.499581 3.026037 62.196433 0.000001 0.000000 -0.000001 -0.125697 1.886095 45.000773 -1.169008 3.204690 68.417677 -0.936421 1.813619 41.107535 0.000000 -0.000000 -0.000005 -5.311998 1.216629 58.508828 -0.745193 1.667586 48.011251 -0.816475 1.840619 53.666548 0.000000 0.000000 0.000002 -5.278814 50.862301 31.321291 56.315924 6.133727 -5.322462 -43.740740 12.708895 -2.991371 -1.803490 3.939490 -9.476575 0.000000 -0.000001 0.000001 -23.838969 7.781098 -32.501114 41.104748 5.901766 1.021784 -19.629267 -4.294688 29.545455 1.601682 -2.595676 4.658524 -0.000000 0.000001 0.000000 
-0.139815 28.955742 0.999083 0.154297 -63.499080 -1.946985 7.723463 -7.912031 7.314054 -0.769987 -11.249912 5.778991 0.000000 0.000000 0.000000 -12.026593 -11.514013 5.093314 5.352069 37.304734 7.154960 18.938296 24.498263 -3.642634 -0.000001 0.000000 -0.000001 7.857574 -21.919605 30.974467 0.000000 0.000000 0.000000 -21.326301 -25.568316 -2.826566 -0.025382 -17.497924 -4.137783 -2.765586 -6.958311 14.864488 42.927578 -18.897858 16.453219 -0.945110 11.655988 -8.273429 14.060071 23.951397 -4.258770 0.000000 -0.000003 -0.000000 -2.215088 -7.742164 -53.603892 -1.119918 -2.204948 -58.146097 -1.288621 -2.431004 -60.890255 0.000000 0.000001 -0.000005 0.537331 2.419251 -57.792751 -1.191435 -3.024535 -66.361155 -1.171502 -3.261351 -69.904623 -0.000002 0.000001 -0.000001 1.239043 5.863671 -67.162254 -2.655543 -2.476368 -72.221355 -2.839702 -2.591460 -75.387694 -0.000000 0.000001 -0.000000 0.146571 -15.459971 2.713247 0.000000 0.000000 0.000000 -57.506149 -5.072674 -23.534935 -0.738071 40.895160 7.076530 -50.027324 -13.816069 -14.796331 55.149522 18.649565 -29.698284 -0.442541 -14.180530 7.313158 21.667006 -29.244517 9.142378 -0.000001 -0.000000 0.000001 5.673392 7.585026 36.844137 1.050447 3.824485 68.900271 0.499582 3.026037 62.196440 -0.000001 0.000002 -0.000002 -0.125697 1.886095 45.000770 -1.169009 3.204690 68.417677 -0.936423 1.813617 41.107538 0.000000 -0.000001 -0.000003 -5.311999 1.216631 58.508828 -0.745194 1.667587 48.011247 -0.816475 1.840618 53.666552 -0.000001 0.000001 0.000004 -3.824010 50.124207 30.230602 55.037750 5.838761 -4.964583 -43.526610 11.923156 -1.603869 -1.326765 4.280847 -9.756198 0.000000 -0.000001 -0.000001 -18.509645 6.890376 -33.153960 42.347832 4.226901 2.349560 -23.634275 -5.896334 26.232521 1.604817 -3.250317 5.259084 -0.000000 0.000000 -0.000000 
-0.274837 29.191719 1.299094 -2.781152 -60.372636 -4.063069 7.353286 -7.941177 7.120448 -1.527753 -11.209413 5.298613 0.000000 0.000000 0.000000 -12.782773 -11.382085 4.629936 8.338202 34.560358 6.887036 17.862384 23.738206 -2.470278 0.000000 0.000001 -0.000002 8.584860 -21.755790 33.610166 0.000000 0.000000 0.000000 -27.651768 -28.364621 -2.405166 -0.026661 -18.419763 -2.358925 -5.291963 -5.926818 14.285838 43.353960 -18.915842 16.360974 -0.820365 11.735185 -8.393312 14.368869 24.345642 -4.486600 -0.000001 -0.000003 -0.000000 -2.247305 -7.764463 -54.521995 -1.150278 -2.222084 -58.919923 -1.326532 -2.452323 -61.805439 -0.000001 0.000000 -0.000001 0.497566 2.394598 -58.704479 -1.233054 -3.040894 -67.253786 -1.215400 -3.277660 -70.820579 0.000002 0.000000 0.000001 1.193968 5.845150 -68.070915 -2.702009 -2.490736 -73.136545 -2.888874 -2.602350 -76.303014 0.000001 0.000001 -0.000001 -0.667867 -15.637513 0.241163 0.000000 0.000000 0.000000 -60.363559 -5.259267 -25.202655 0.541702 42.083210 7.030224 -48.692863 -11.717010 -15.338721 55.149522 18.649558 -29.698287 -0.442542 -14.180531 7.313153 21.667001 -29.244514 9.142382 -0.000001 0.000001 0.000002 5.673393 7.585028 36.844134 1.050447 3.824485 68.900271 0.499584 3.026037 62.196433 0.000001 -0.000000 -0.000002 -0.125698 1.886095 45.000770 -1.169008 3.204690 68.417677 -0.936424 1.813618 41.107541 0.000000 -0.000001 -0.000003 -5.312001 1.216629 58.508828 -0.745194 1.667584 48.011247 -0.816474 1.840620 53.666552 0.000001 0.000001 0.000003 -1.533751 49.586507 28.706831 53.042108 4.772007 -5.050655 -42.827356 11.482180 -0.878949 -0.813007 4.650514 -10.063264 -0.000000 0.000001 0.000002 -12.630652 5.679766 -34.127276 43.188082 2.122819 4.759598 -26.803109 -7.666296 22.524871 0.868947 -3.764675 5.596191 0.000000 0.000001 -0.000000 
-0.388508 29.390274 1.697304 -4.320085 -57.305185 -4.867755 6.862652 -7.978056 6.892012 -2.535068 -11.161992 4.689577 0.000000 0.000000 0.000000 -13.787173 -11.218761 4.041874 11.602468 31.881113 6.465376 17.424395 22.943896 -1.329560 -0.000000 0.000000 -0.000002 8.478561 -20.502882 36.126257 0.000000 0.000000 0.000000 -34.534765 -32.188428 -4.145010 -0.027674 -17.857386 -0.308362 -9.297716 -5.515032 15.170699 43.570583 -18.924904 16.312507 -0.757234 11.775692 -8.454598 14.526745 24.546177 -4.603813 0.000000 -0.000002 -0.000000 -2.263439 -7.775079 -54.989556 -1.165429 -2.230473 -59.314073 -1.345039 -2.462531 -62.271531 -0.000000 -0.000001 0.000001 0.478513 2.383212 -59.168938 -1.253579 -3.047939 -67.708464 -1.237026 -3.285219 -71.287087 -0.000001 -0.000001 -0.000001 1.171022 5.836706 -68.533722 -2.726100 -2.497379 -73.602815 -2.914674 -2.606561 -76.769250 0.000001 0.000001 -0.000001 -1.505404 -15.764153 -2.396705 0.000000 0.000000 0.000000 -63.043391 -5.187518 -26.544805 1.665753 43.271851 6.930254 -47.203168 -9.686950 -15.881242 55.149516 18.649562 -29.698284 -0.442540 -14.180537 7.313160 21.666999 -29.244517 9.142382 0.000004 0.000000 -0.000000 5.673390 7.585028 36.844137 1.050447 3.824485 68.900271 0.499584 3.026037 62.196433 -0.000000 0.000000 -0.000002 -0.125699 1.886096 45.000773 -1.169008 3.204688 68.417677 -0.936422 1.813617 41.107535 -0.000001 -0.000000 -0.000002 -5.312001 1.216630 58.508821 -0.745194 1.667586 48.011244 -0.816477 1.840622 53.666552 0.000001 0.000000 -0.000001 1.336509 49.318911 26.795112 50.195477 3.443146 -5.374812 -41.881600 11.362165 -1.141527 -0.265166 4.748654 -10.098151 -0.000000 -0.000001 -0.000001 -7.088685 4.152626 -35.207224 43.199341 -0.218082 8.384574 -28.007718 -8.894513 18.099562 -0.263986 -4.564416 6.099806 -0.000000 -0.000000 0.000000 
